<svg xmlns="http://www.w3.org/2000/svg" xmlns:xlink="http://www.w3.org/1999/xlink" width="1920" zoomAndPan="magnify" viewBox="0 0 1440 809.999993" height="1080" preserveAspectRatio="xMidYMid meet" version="1.0"><defs><g/><clipPath id="d5d58d86e1"><path d="M 35.316406 95.699219 L 598.800781 95.699219 L 598.800781 715 L 35.316406 715 Z M 35.316406 95.699219 " clip-rule="nonzero"/></clipPath><clipPath id="3af5868c53"><path d="M 317.058594 95.699219 L 598.800781 261.15625 L 598.800781 548.84375 L 317.058594 714.300781 L 35.316406 548.84375 L 35.316406 261.15625 Z M 317.058594 95.699219 " clip-rule="nonzero"/></clipPath><clipPath id="d107ef5b85"><path d="M 35.324219 95.699219 L 599 95.699219 L 599 713.742188 L 35.324219 713.742188 Z M 35.324219 95.699219 " clip-rule="nonzero"/></clipPath><clipPath id="633256f4fe"><path d="M 317.054688 95.699219 L 598.789062 261.148438 L 598.789062 548.828125 L 317.054688 714.277344 L 35.324219 548.828125 L 35.324219 261.148438 Z M 317.054688 95.699219 " clip-rule="nonzero"/></clipPath></defs><g clip-path="url(#d5d58d86e1)"><g clip-path="url(#3af5868c53)"><path fill="#253d77" d="M 35.316406 95.699219 L 598.800781 95.699219 L 598.800781 714.214844 L 35.316406 714.214844 Z M 35.316406 95.699219 " fill-opacity="1" fill-rule="nonzero"/></g></g><g clip-path="url(#d107ef5b85)"><g clip-path="url(#633256f4fe)"><path stroke-linecap="butt" transform="matrix(3.791675, 0, 0, 3.791675, 35.323357, 95.70079)" fill="none" stroke-linejoin="miter" d="M 74.302608 -0.000414496 L 148.606019 43.63445 L 148.606019 119.505852 L 74.302608 163.140717 L 0.000227378 119.505852 L 0.000227378 43.63445 Z M 74.302608 -0.000414496 " stroke="#bcba87" stroke-width="0.791207" stroke-opacity="1" stroke-miterlimit="4"/></g></g><g fill="#bcba87" fill-opacity="1"><g transform="translate(112.026922, 494.021018)"><g><path d="M 186.125 0 L 185.875 -108.578125 L 132.625 -19.125 L 113.75 -19.125 L 60.75 -106.25 L 60.75 0 L 21.453125 0 L 21.453125 -180.953125 L 56.09375 -180.953125 L 123.828125 -68.5 L 190.53125 -180.953125 L 224.90625 -180.953125 L 225.421875 0 Z M 186.125 0 "/></g></g></g><g fill="#bcba87" fill-opacity="1"><g transform="translate(410.14165, 494.021018)"><g><path d="M 21.453125 -180.953125 L 63.34375 -180.953125 L 63.34375 0 L 21.453125 0 Z M 21.453125 -180.953125 "/></g></g></g><path stroke-linecap="butt" transform="matrix(0, -3.791675, 3.791675, 0, 376.251695, 561.544096)" fill="none" stroke-linejoin="miter" d="M 0.00029723 1.49955 L 80.514895 1.49955 " stroke="#bcba87" stroke-width="3" stroke-opacity="1" stroke-miterlimit="4"/><path stroke-linecap="butt" transform="matrix(3.791675, 0, 0, 3.791675, 587.221729, 188.696391)" fill="none" stroke-linejoin="miter" d="M 70.690687 32.999646 L 70.653599 17.01376 L 62.808492 30.184062 L 60.029995 30.184062 L 52.232278 17.357852 L 52.232278 32.999646 L 46.441425 32.999646 L 46.441425 6.353068 L 51.544093 6.353068 L 61.516599 22.915876 L 71.340755 6.353068 L 76.406335 6.353068 L 76.48051 32.999646 Z M 112.640119 28.055632 L 112.640119 32.999646 L 92.00589 32.999646 L 92.00589 6.353068 L 112.146644 6.353068 L 112.146644 11.297082 L 98.131564 11.297082 L 98.131564 17.087935 L 110.511689 17.087935 L 110.511689 21.883598 L 98.131564 21.883598 L 98.131564 28.055632 Z M 147.39451 28.055632 L 147.39451 32.999646 L 126.761312 32.999646 L 126.761312 6.353068 L 146.902066 6.353068 L 146.902066 11.297082 L 132.885955 11.297082 L 132.885955 17.087935 L 145.26608 17.087935 L 145.26608 21.883598 L 132.885955 21.883598 L 132.885955 28.055632 Z M 178.49678 32.999646 L 173.357024 25.573838 L 167.687737 25.573838 L 167.687737 32.999646 L 161.515703 32.999646 L 161.515703 6.353068 L 173.05002 6.353068 C 175.411278 6.353068 177.459351 6.746611 179.194237 7.533697 C 180.935305 8.319753 182.273558 9.438569 183.208995 10.888086 C 184.150614 12.332451 184.621424 14.042612 184.621424 16.018569 C 184.621424 18.001738 184.144433 19.711899 183.190452 21.150083 C 182.242651 22.581056 180.892036 23.674116 179.137575 24.430296 L 185.113868 32.999646 Z M 178.376245 16.018569 C 178.376245 14.525784 177.893073 13.379152 176.925698 12.579703 C 175.965535 11.775103 174.559288 11.372288 172.705927 11.372288 L 167.687737 11.372288 L 167.687737 20.665881 L 172.705927 20.665881 C 174.559288 20.665881 175.965535 20.259975 176.925698 19.449194 C 177.893073 18.637382 178.376245 17.493841 178.376245 16.018569 Z M 178.376245 16.018569 " stroke="#253d77" stroke-width="2.855858" stroke-opacity="1" stroke-miterlimit="4"/><path stroke-linecap="butt" transform="matrix(3.791675, 0, 0, 3.791675, 587.221729, 188.696391)" fill="none" stroke-linejoin="miter" d="M 16.284895 46.353327 L 22.456928 46.353327 L 22.456928 72.999906 L 16.284895 72.999906 Z M 62.233631 72.999906 L 62.196543 57.014019 L 54.352466 70.183291 L 51.572939 70.183291 L 43.775222 57.357082 L 43.775222 72.999906 L 37.984368 72.999906 L 37.984368 46.353327 L 43.087036 46.353327 L 53.060573 62.915106 L 62.884728 46.353327 L 67.949278 46.353327 L 68.024484 72.999906 Z M 95.08315 46.353327 C 97.444409 46.353327 99.492481 46.74584 101.227368 47.532926 C 102.968436 48.320013 104.306688 49.438829 105.242126 50.888345 C 106.183745 52.33271 106.655584 54.042872 106.655584 56.018829 C 106.655584 57.977273 106.183745 59.687434 105.242126 61.149313 C 104.306688 62.60604 102.968436 63.720736 101.227368 64.495459 C 99.492481 65.264002 97.444409 65.648273 95.08315 65.648273 L 89.720867 65.648273 L 89.720867 72.999906 L 83.548833 72.999906 L 83.548833 46.353327 Z M 94.740087 60.629053 C 96.592419 60.629053 97.998666 60.229328 98.959859 59.429879 C 99.926203 58.630431 100.409375 57.494101 100.409375 56.018829 C 100.409375 54.526044 99.926203 53.379411 98.959859 52.579962 C 97.998666 51.774332 96.592419 51.371517 94.740087 51.371517 L 89.720867 51.371517 L 89.720867 60.629053 Z M 138.174062 67.293531 L 125.803209 67.293531 L 123.44195 72.999906 L 117.121565 72.999906 L 128.999974 46.353327 L 135.08753 46.353327 L 147.003027 72.999906 L 140.534291 72.999906 Z M 136.231072 62.609131 L 132.011301 52.403795 L 127.782257 62.609131 Z M 171.748855 73.455262 C 169.034231 73.455262 166.578192 72.867008 164.378678 71.689469 C 162.184314 70.505749 160.4587 68.866673 159.200804 66.77224 C 157.94909 64.678838 157.323747 62.311398 157.323747 59.671981 C 157.323747 57.032563 157.94909 54.668214 159.200804 52.579962 C 160.4587 50.48553 162.184314 48.849544 164.378678 47.673036 C 166.578192 46.489316 169.047624 45.896941 171.785942 45.896941 C 174.096721 45.896941 176.184972 46.302847 178.050696 47.114658 C 179.91539 47.926469 181.483381 49.094736 182.753639 50.619458 L 178.793483 54.27158 C 176.990602 52.18951 174.75709 51.14899 172.092947 51.14899 C 170.444599 51.14899 168.972418 51.511627 167.677435 52.23587 C 166.382451 52.954962 165.372838 53.961484 164.647565 55.256468 C 163.922291 56.551451 163.560685 58.023632 163.560685 59.671981 C 163.560685 61.32651 163.922291 62.800752 164.647565 64.095735 C 165.372838 65.384537 166.382451 66.39209 167.677435 67.116333 C 168.972418 67.841606 170.444599 68.204243 172.092947 68.204243 C 174.75709 68.204243 176.990602 67.15033 178.793483 65.043535 L 182.753639 68.696687 C 181.483381 70.246134 179.909208 71.425733 178.032152 72.237545 C 176.154065 73.049356 174.059633 73.455262 171.748855 73.455262 Z M 201.632377 51.371517 L 193.100115 51.371517 L 193.100115 46.353327 L 216.327401 46.353327 L 216.327401 51.371517 L 207.794109 51.371517 L 207.794109 72.999906 L 201.632377 72.999906 Z M 201.632377 51.371517 " stroke="#253d77" stroke-width="2.855858" stroke-opacity="1" stroke-miterlimit="4"/><g fill="#bcba87" fill-opacity="1"><g transform="translate(751.330145, 313.821653)"><g><path d="M 103.921875 0 L 103.78125 -60.625 L 74.046875 -10.6875 L 63.515625 -10.6875 L 33.921875 -59.328125 L 33.921875 0 L 11.984375 0 L 11.984375 -101.046875 L 31.328125 -101.046875 L 69.140625 -38.25 L 106.375 -101.046875 L 125.578125 -101.046875 L 125.875 0 Z M 103.921875 0 "/></g></g></g><g fill="#bcba87" fill-opacity="1"><g transform="translate(924.096521, 313.821653)"><g><path d="M 90.21875 -18.765625 L 90.21875 0 L 11.984375 0 L 11.984375 -101.046875 L 88.34375 -101.046875 L 88.34375 -82.28125 L 35.21875 -82.28125 L 35.21875 -60.328125 L 82.125 -60.328125 L 82.125 -42.140625 L 35.21875 -42.140625 L 35.21875 -18.765625 Z M 90.21875 -18.765625 "/></g></g></g><g fill="#bcba87" fill-opacity="1"><g transform="translate(1055.87577, 313.821653)"><g><path d="M 90.21875 -18.765625 L 90.21875 0 L 11.984375 0 L 11.984375 -101.046875 L 88.34375 -101.046875 L 88.34375 -82.28125 L 35.21875 -82.28125 L 35.21875 -60.328125 L 82.125 -60.328125 L 82.125 -42.140625 L 35.21875 -42.140625 L 35.21875 -18.765625 Z M 90.21875 -18.765625 "/></g></g></g><g fill="#bcba87" fill-opacity="1"><g transform="translate(1187.655004, 313.821653)"><g><path d="M 76.359375 0 L 56.875 -28.140625 L 35.359375 -28.140625 L 35.359375 0 L 11.984375 0 L 11.984375 -101.046875 L 55.71875 -101.046875 C 64.664062 -101.046875 72.4375 -99.550781 79.03125 -96.5625 C 85.625 -93.582031 90.695312 -89.347656 94.25 -83.859375 C 97.8125 -78.378906 99.59375 -71.882812 99.59375 -64.375 C 99.59375 -56.875 97.785156 -50.40625 94.171875 -44.96875 C 90.566406 -39.53125 85.445312 -35.367188 78.8125 -32.484375 L 101.46875 0 Z M 75.921875 -64.375 C 75.921875 -70.050781 74.09375 -74.40625 70.4375 -77.4375 C 66.78125 -80.46875 61.441406 -81.984375 54.421875 -81.984375 L 35.359375 -81.984375 L 35.359375 -46.765625 L 54.421875 -46.765625 C 61.441406 -46.765625 66.78125 -48.300781 70.4375 -51.375 C 74.09375 -54.457031 75.921875 -58.789062 75.921875 -64.375 Z M 75.921875 -64.375 "/></g></g></g><g fill="#bcba87" fill-opacity="1"><g transform="translate(636.987458, 465.488638)"><g><path d="M 11.984375 -101.046875 L 35.359375 -101.046875 L 35.359375 0 L 11.984375 0 Z M 11.984375 -101.046875 "/></g></g></g><g fill="#bcba87" fill-opacity="1"><g transform="translate(719.264632, 465.488638)"><g><path d="M 103.921875 0 L 103.78125 -60.625 L 74.046875 -10.6875 L 63.515625 -10.6875 L 33.921875 -59.328125 L 33.921875 0 L 11.984375 0 L 11.984375 -101.046875 L 31.328125 -101.046875 L 69.140625 -38.25 L 106.375 -101.046875 L 125.578125 -101.046875 L 125.875 0 Z M 103.921875 0 "/></g></g></g><g fill="#bcba87" fill-opacity="1"><g transform="translate(892.031008, 465.488638)"><g><path d="M 55.71875 -101.046875 C 64.664062 -101.046875 72.4375 -99.550781 79.03125 -96.5625 C 85.625 -93.582031 90.695312 -89.347656 94.25 -83.859375 C 97.8125 -78.378906 99.59375 -71.882812 99.59375 -64.375 C 99.59375 -56.96875 97.8125 -50.492188 94.25 -44.953125 C 90.695312 -39.421875 85.625 -35.1875 79.03125 -32.25 C 72.4375 -29.320312 64.664062 -27.859375 55.71875 -27.859375 L 35.359375 -27.859375 L 35.359375 0 L 11.984375 0 L 11.984375 -101.046875 Z M 54.421875 -46.90625 C 61.441406 -46.90625 66.78125 -48.421875 70.4375 -51.453125 C 74.09375 -54.484375 75.921875 -58.789062 75.921875 -64.375 C 75.921875 -70.050781 74.09375 -74.40625 70.4375 -77.4375 C 66.78125 -80.46875 61.441406 -81.984375 54.421875 -81.984375 L 35.359375 -81.984375 L 35.359375 -46.90625 Z M 54.421875 -46.90625 "/></g></g></g><g fill="#bcba87" fill-opacity="1"><g transform="translate(1032.613782, 465.488638)"><g><path d="M 78.515625 -21.65625 L 31.609375 -21.65625 L 22.65625 0 L -1.296875 0 L 43.734375 -101.046875 L 66.828125 -101.046875 L 112.015625 0 L 87.46875 0 Z M 71.15625 -39.40625 L 55.140625 -78.09375 L 39.109375 -39.40625 Z M 71.15625 -39.40625 "/></g></g></g><g fill="#bcba87" fill-opacity="1"><g transform="translate(1178.103499, 465.488638)"><g><path d="M 60.328125 1.734375 C 50.035156 1.734375 40.726562 -0.5 32.40625 -4.96875 C 24.082031 -9.445312 17.535156 -15.65625 12.765625 -23.59375 C 8.003906 -31.539062 5.625 -40.515625 5.625 -50.515625 C 5.625 -60.523438 8.003906 -69.5 12.765625 -77.4375 C 17.535156 -85.375 24.082031 -91.578125 32.40625 -96.046875 C 40.726562 -100.523438 50.085938 -102.765625 60.484375 -102.765625 C 69.234375 -102.765625 77.144531 -101.222656 84.21875 -98.140625 C 91.289062 -95.066406 97.234375 -90.644531 102.046875 -84.875 L 87.046875 -71.015625 C 80.210938 -78.910156 71.742188 -82.859375 61.640625 -82.859375 C 55.378906 -82.859375 49.796875 -81.484375 44.890625 -78.734375 C 39.984375 -75.992188 36.15625 -72.171875 33.40625 -67.265625 C 30.664062 -62.359375 29.296875 -56.773438 29.296875 -50.515625 C 29.296875 -44.265625 30.664062 -38.6875 33.40625 -33.78125 C 36.15625 -28.875 39.984375 -25.046875 44.890625 -22.296875 C 49.796875 -19.554688 55.378906 -18.1875 61.640625 -18.1875 C 71.742188 -18.1875 80.210938 -22.179688 87.046875 -30.171875 L 102.046875 -16.3125 C 97.234375 -10.4375 91.265625 -5.957031 84.140625 -2.875 C 77.023438 0.195312 69.085938 1.734375 60.328125 1.734375 Z M 60.328125 1.734375 "/></g></g></g><g fill="#bcba87" fill-opacity="1"><g transform="translate(1318.830657, 465.488638)"><g><path d="M 32.90625 -81.984375 L 0.578125 -81.984375 L 0.578125 -101.046875 L 88.625 -101.046875 L 88.625 -81.984375 L 56.296875 -81.984375 L 56.296875 0 L 32.90625 0 Z M 32.90625 -81.984375 "/></g></g></g><g fill="#253d77" fill-opacity="1"><g transform="translate(725.080096, 568.728295)"><g><path d="M 55.921875 -46.546875 L 55.921875 0 L 51.203125 0 L 51.203125 -37.234375 L 32.921875 -5.921875 L 30.59375 -5.921875 L 12.296875 -37.046875 L 12.296875 0 L 7.578125 0 L 7.578125 -46.546875 L 11.640625 -46.546875 L 31.859375 -12.03125 L 51.875 -46.546875 Z M 55.921875 -46.546875 "/></g></g></g><g fill="#253d77" fill-opacity="1"><g transform="translate(788.561255, 568.728295)"><g><path d="M 18.8125 -35.25 C 23.382812 -35.25 26.890625 -34.101562 29.328125 -31.8125 C 31.765625 -29.53125 32.984375 -26.148438 32.984375 -21.671875 L 32.984375 0 L 28.46875 0 L 28.46875 -5.453125 C 27.394531 -3.628906 25.828125 -2.207031 23.765625 -1.1875 C 21.710938 -0.175781 19.265625 0.328125 16.421875 0.328125 C 12.523438 0.328125 9.421875 -0.597656 7.109375 -2.453125 C 4.804688 -4.316406 3.65625 -6.78125 3.65625 -9.84375 C 3.65625 -12.8125 4.726562 -15.203125 6.875 -17.015625 C 9.03125 -18.835938 12.457031 -19.75 17.15625 -19.75 L 28.265625 -19.75 L 28.265625 -21.875 C 28.265625 -24.894531 27.421875 -27.191406 25.734375 -28.765625 C 24.046875 -30.335938 21.585938 -31.125 18.359375 -31.125 C 16.140625 -31.125 14.007812 -30.753906 11.96875 -30.015625 C 9.925781 -29.285156 8.175781 -28.28125 6.71875 -27 L 4.59375 -30.53125 C 6.363281 -32.03125 8.488281 -33.191406 10.96875 -34.015625 C 13.457031 -34.835938 16.070312 -35.25 18.8125 -35.25 Z M 17.15625 -3.390625 C 19.8125 -3.390625 22.09375 -4 24 -5.21875 C 25.90625 -6.4375 27.328125 -8.195312 28.265625 -10.5 L 28.265625 -16.21875 L 17.296875 -16.21875 C 11.304688 -16.21875 8.3125 -14.132812 8.3125 -9.96875 C 8.3125 -7.9375 9.085938 -6.332031 10.640625 -5.15625 C 12.191406 -3.976562 14.363281 -3.390625 17.15625 -3.390625 Z M 17.15625 -3.390625 "/></g></g></g><g fill="#253d77" fill-opacity="1"><g transform="translate(827.780001, 568.728295)"><g><path d="M 11.109375 -28.125 C 12.210938 -30.476562 13.859375 -32.253906 16.046875 -33.453125 C 18.242188 -34.648438 20.960938 -35.25 24.203125 -35.25 L 24.203125 -30.65625 L 23.078125 -30.71875 C 19.398438 -30.71875 16.519531 -29.585938 14.4375 -27.328125 C 12.351562 -25.066406 11.3125 -21.898438 11.3125 -17.828125 L 11.3125 0 L 6.578125 0 L 6.578125 -34.984375 L 11.109375 -34.984375 Z M 11.109375 -28.125 "/></g></g></g><g fill="#253d77" fill-opacity="1"><g transform="translate(854.435469, 568.728295)"><g><path d="M 19.546875 -17.5625 L 11.3125 -9.96875 L 11.3125 0 L 6.578125 0 L 6.578125 -49.34375 L 11.3125 -49.34375 L 11.3125 -15.890625 L 32.1875 -34.984375 L 38.03125 -34.984375 L 23.078125 -20.6875 L 39.4375 0 L 33.65625 0 Z M 19.546875 -17.5625 "/></g></g></g><g fill="#253d77" fill-opacity="1"><g transform="translate(894.385403, 568.728295)"><g><path d="M 37.046875 -16.03125 L 7.78125 -16.03125 C 8.039062 -12.394531 9.4375 -9.457031 11.96875 -7.21875 C 14.5 -4.976562 17.691406 -3.859375 21.546875 -3.859375 C 23.710938 -3.859375 25.703125 -4.242188 27.515625 -5.015625 C 29.335938 -5.796875 30.914062 -6.941406 32.25 -8.453125 L 34.90625 -5.390625 C 33.351562 -3.523438 31.414062 -2.101562 29.09375 -1.125 C 26.769531 -0.15625 24.207031 0.328125 21.40625 0.328125 C 17.820312 0.328125 14.644531 -0.429688 11.875 -1.953125 C 9.101562 -3.484375 6.941406 -5.601562 5.390625 -8.3125 C 3.835938 -11.019531 3.0625 -14.078125 3.0625 -17.484375 C 3.0625 -20.898438 3.800781 -23.957031 5.28125 -26.65625 C 6.769531 -29.363281 8.8125 -31.472656 11.40625 -32.984375 C 14 -34.492188 16.914062 -35.25 20.15625 -35.25 C 23.382812 -35.25 26.285156 -34.492188 28.859375 -32.984375 C 31.429688 -31.472656 33.445312 -29.375 34.90625 -26.6875 C 36.375 -24.007812 37.109375 -20.941406 37.109375 -17.484375 Z M 20.15625 -31.1875 C 16.78125 -31.1875 13.953125 -30.109375 11.671875 -27.953125 C 9.390625 -25.804688 8.09375 -23.003906 7.78125 -19.546875 L 32.578125 -19.546875 C 32.273438 -23.003906 30.976562 -25.804688 28.6875 -27.953125 C 26.40625 -30.109375 23.5625 -31.1875 20.15625 -31.1875 Z M 20.15625 -31.1875 "/></g></g></g><g fill="#253d77" fill-opacity="1"><g transform="translate(934.534768, 568.728295)"><g><path d="M 25 -2.125 C 24.113281 -1.332031 23.015625 -0.722656 21.703125 -0.296875 C 20.398438 0.117188 19.039062 0.328125 17.625 0.328125 C 14.34375 0.328125 11.8125 -0.554688 10.03125 -2.328125 C 8.257812 -4.097656 7.375 -6.601562 7.375 -9.84375 L 7.375 -30.984375 L 1.125 -30.984375 L 1.125 -34.984375 L 7.375 -34.984375 L 7.375 -42.625 L 12.109375 -42.625 L 12.109375 -34.984375 L 22.75 -34.984375 L 22.75 -30.984375 L 12.109375 -30.984375 L 12.109375 -10.109375 C 12.109375 -8.023438 12.628906 -6.4375 13.671875 -5.34375 C 14.710938 -4.257812 16.207031 -3.71875 18.15625 -3.71875 C 19.132812 -3.71875 20.078125 -3.875 20.984375 -4.1875 C 21.890625 -4.5 22.675781 -4.941406 23.34375 -5.515625 Z M 25 -2.125 "/></g></g></g><g fill="#253d77" fill-opacity="1"><g transform="translate(961.522563, 568.728295)"><g><path d="M 6.578125 -34.984375 L 11.3125 -34.984375 L 11.3125 0 L 6.578125 0 Z M 8.96875 -42.625 C 8 -42.625 7.179688 -42.957031 6.515625 -43.625 C 5.847656 -44.289062 5.515625 -45.085938 5.515625 -46.015625 C 5.515625 -46.898438 5.847656 -47.675781 6.515625 -48.34375 C 7.179688 -49.007812 8 -49.34375 8.96875 -49.34375 C 9.945312 -49.34375 10.769531 -49.019531 11.4375 -48.375 C 12.101562 -47.738281 12.4375 -46.972656 12.4375 -46.078125 C 12.4375 -45.109375 12.101562 -44.289062 11.4375 -43.625 C 10.769531 -42.957031 9.945312 -42.625 8.96875 -42.625 Z M 8.96875 -42.625 "/></g></g></g><g fill="#253d77" fill-opacity="1"><g transform="translate(979.403651, 568.728295)"><g><path d="M 24.40625 -35.25 C 28.789062 -35.25 32.28125 -33.972656 34.875 -31.421875 C 37.46875 -28.867188 38.765625 -25.15625 38.765625 -20.28125 L 38.765625 0 L 34.046875 0 L 34.046875 -19.8125 C 34.046875 -23.445312 33.132812 -26.21875 31.3125 -28.125 C 29.5 -30.03125 26.910156 -30.984375 23.546875 -30.984375 C 19.773438 -30.984375 16.789062 -29.863281 14.59375 -27.625 C 12.40625 -25.382812 11.3125 -22.296875 11.3125 -18.359375 L 11.3125 0 L 6.578125 0 L 6.578125 -34.984375 L 11.109375 -34.984375 L 11.109375 -28.53125 C 12.390625 -30.65625 14.171875 -32.304688 16.453125 -33.484375 C 18.742188 -34.660156 21.394531 -35.25 24.40625 -35.25 Z M 24.40625 -35.25 "/></g></g></g><g fill="#253d77" fill-opacity="1"><g transform="translate(1024.405487, 568.728295)"><g><path d="M 38.96875 -34.984375 L 38.96875 -4.25 C 38.96875 1.6875 37.515625 6.082031 34.609375 8.9375 C 31.703125 11.800781 27.328125 13.234375 21.484375 13.234375 C 18.242188 13.234375 15.171875 12.753906 12.265625 11.796875 C 9.359375 10.847656 7 9.53125 5.1875 7.84375 L 7.578125 4.25 C 9.265625 5.757812 11.316406 6.9375 13.734375 7.78125 C 16.148438 8.625 18.6875 9.046875 21.34375 9.046875 C 25.78125 9.046875 29.039062 8.015625 31.125 5.953125 C 33.207031 3.890625 34.25 0.6875 34.25 -3.65625 L 34.25 -8.109375 C 32.78125 -5.890625 30.859375 -4.203125 28.484375 -3.046875 C 26.117188 -1.898438 23.492188 -1.328125 20.609375 -1.328125 C 17.328125 -1.328125 14.34375 -2.046875 11.65625 -3.484375 C 8.976562 -4.929688 6.875 -6.953125 5.34375 -9.546875 C 3.820312 -12.140625 3.0625 -15.078125 3.0625 -18.359375 C 3.0625 -21.640625 3.820312 -24.5625 5.34375 -27.125 C 6.875 -29.695312 8.96875 -31.691406 11.625 -33.109375 C 14.289062 -34.535156 17.285156 -35.25 20.609375 -35.25 C 23.585938 -35.25 26.269531 -34.648438 28.65625 -33.453125 C 31.050781 -32.253906 32.984375 -30.523438 34.453125 -28.265625 L 34.453125 -34.984375 Z M 21.078125 -5.515625 C 23.609375 -5.515625 25.890625 -6.054688 27.921875 -7.140625 C 29.960938 -8.234375 31.546875 -9.753906 32.671875 -11.703125 C 33.804688 -13.648438 34.375 -15.867188 34.375 -18.359375 C 34.375 -20.835938 33.804688 -23.039062 32.671875 -24.96875 C 31.546875 -26.894531 29.972656 -28.398438 27.953125 -29.484375 C 25.941406 -30.578125 23.648438 -31.125 21.078125 -31.125 C 18.554688 -31.125 16.285156 -30.59375 14.265625 -29.53125 C 12.242188 -28.46875 10.664062 -26.957031 9.53125 -25 C 8.40625 -23.050781 7.84375 -20.835938 7.84375 -18.359375 C 7.84375 -15.867188 8.40625 -13.648438 9.53125 -11.703125 C 10.664062 -9.753906 12.242188 -8.234375 14.265625 -7.140625 C 16.285156 -6.054688 18.554688 -5.515625 21.078125 -5.515625 Z M 21.078125 -5.515625 "/></g></g></g><g fill="#253d77" fill-opacity="1"><g transform="translate(1070.005558, 568.728295)"><g/></g></g><g fill="#253d77" fill-opacity="1"><g transform="translate(1087.421365, 568.728295)"><g><path d="M 40.890625 0.734375 L 34.453125 -5.921875 C 30.503906 -1.703125 25.316406 0.40625 18.890625 0.40625 C 15.867188 0.40625 13.171875 -0.09375 10.796875 -1.09375 C 8.429688 -2.09375 6.582031 -3.488281 5.25 -5.28125 C 3.925781 -7.082031 3.265625 -9.132812 3.265625 -11.4375 C 3.265625 -14.226562 4.148438 -16.734375 5.921875 -18.953125 C 7.691406 -21.171875 10.707031 -23.5 14.96875 -25.9375 C 12.75 -28.238281 11.21875 -30.195312 10.375 -31.8125 C 9.53125 -33.4375 9.109375 -35.15625 9.109375 -36.96875 C 9.109375 -39.9375 10.171875 -42.328125 12.296875 -44.140625 C 14.429688 -45.960938 17.289062 -46.875 20.875 -46.875 C 24.207031 -46.875 26.847656 -46.054688 28.796875 -44.421875 C 30.742188 -42.785156 31.71875 -40.523438 31.71875 -37.640625 C 31.71875 -35.335938 30.941406 -33.265625 29.390625 -31.421875 C 27.835938 -29.578125 25.15625 -27.550781 21.34375 -25.34375 L 34.109375 -12.171875 C 35.535156 -14.691406 36.578125 -17.679688 37.234375 -21.140625 L 41.09375 -19.953125 C 40.25 -15.785156 38.875 -12.21875 36.96875 -9.25 L 43.625 -2.390625 Z M 20.875 -43.359375 C 18.570312 -43.359375 16.765625 -42.78125 15.453125 -41.625 C 14.148438 -40.476562 13.5 -38.953125 13.5 -37.046875 C 13.5 -35.671875 13.851562 -34.359375 14.5625 -33.109375 C 15.269531 -31.867188 16.664062 -30.1875 18.75 -28.0625 C 22.125 -30.007812 24.453125 -31.671875 25.734375 -33.046875 C 27.015625 -34.421875 27.65625 -35.929688 27.65625 -37.578125 C 27.65625 -39.347656 27.054688 -40.753906 25.859375 -41.796875 C 24.671875 -42.835938 23.007812 -43.359375 20.875 -43.359375 Z M 19.15625 -3.53125 C 24.289062 -3.53125 28.457031 -5.28125 31.65625 -8.78125 L 17.625 -23.203125 C 13.945312 -21.117188 11.40625 -19.234375 10 -17.546875 C 8.601562 -15.867188 7.90625 -13.988281 7.90625 -11.90625 C 7.90625 -9.375 8.9375 -7.34375 11 -5.8125 C 13.0625 -4.289062 15.78125 -3.53125 19.15625 -3.53125 Z M 19.15625 -3.53125 "/></g></g></g><g fill="#253d77" fill-opacity="1"><g transform="translate(1131.891444, 568.728295)"><g/></g></g><g fill="#253d77" fill-opacity="1"><g transform="translate(1149.30725, 568.728295)"><g><path d="M 27.796875 0.40625 C 23.179688 0.40625 19.023438 -0.613281 15.328125 -2.65625 C 11.628906 -4.695312 8.722656 -7.523438 6.609375 -11.140625 C 4.503906 -14.753906 3.453125 -18.800781 3.453125 -23.28125 C 3.453125 -27.75 4.503906 -31.789062 6.609375 -35.40625 C 8.722656 -39.019531 11.640625 -41.847656 15.359375 -43.890625 C 19.085938 -45.929688 23.253906 -46.953125 27.859375 -46.953125 C 31.316406 -46.953125 34.507812 -46.375 37.4375 -45.21875 C 40.363281 -44.0625 42.847656 -42.378906 44.890625 -40.171875 L 41.765625 -37.046875 C 38.128906 -40.722656 33.539062 -42.5625 28 -42.5625 C 24.320312 -42.5625 20.972656 -41.71875 17.953125 -40.03125 C 14.941406 -38.34375 12.582031 -36.035156 10.875 -33.109375 C 9.164062 -30.191406 8.3125 -26.914062 8.3125 -23.28125 C 8.3125 -19.644531 9.164062 -16.363281 10.875 -13.4375 C 12.582031 -10.507812 14.941406 -8.203125 17.953125 -6.515625 C 20.972656 -4.828125 24.320312 -3.984375 28 -3.984375 C 33.582031 -3.984375 38.171875 -5.847656 41.765625 -9.578125 L 44.890625 -6.453125 C 42.847656 -4.234375 40.351562 -2.535156 37.40625 -1.359375 C 34.457031 -0.179688 31.253906 0.40625 27.796875 0.40625 Z M 27.796875 0.40625 "/></g></g></g><g fill="#253d77" fill-opacity="1"><g transform="translate(1197.100946, 568.728295)"><g><path d="M 20.875 0.328125 C 17.507812 0.328125 14.472656 -0.429688 11.765625 -1.953125 C 9.066406 -3.484375 6.941406 -5.601562 5.390625 -8.3125 C 3.835938 -11.019531 3.0625 -14.078125 3.0625 -17.484375 C 3.0625 -20.898438 3.835938 -23.957031 5.390625 -26.65625 C 6.941406 -29.363281 9.066406 -31.472656 11.765625 -32.984375 C 14.472656 -34.492188 17.507812 -35.25 20.875 -35.25 C 24.25 -35.25 27.285156 -34.492188 29.984375 -32.984375 C 32.691406 -31.472656 34.8125 -29.363281 36.34375 -26.65625 C 37.875 -23.957031 38.640625 -20.898438 38.640625 -17.484375 C 38.640625 -14.078125 37.875 -11.019531 36.34375 -8.3125 C 34.8125 -5.601562 32.691406 -3.484375 29.984375 -1.953125 C 27.285156 -0.429688 24.25 0.328125 20.875 0.328125 Z M 20.875 -3.859375 C 23.363281 -3.859375 25.59375 -4.421875 27.5625 -5.546875 C 29.539062 -6.679688 31.082031 -8.289062 32.1875 -10.375 C 33.289062 -12.457031 33.84375 -14.828125 33.84375 -17.484375 C 33.84375 -20.148438 33.289062 -22.523438 32.1875 -24.609375 C 31.082031 -26.691406 29.539062 -28.296875 27.5625 -29.421875 C 25.59375 -30.554688 23.363281 -31.125 20.875 -31.125 C 18.394531 -31.125 16.164062 -30.554688 14.1875 -29.421875 C 12.21875 -28.296875 10.664062 -26.691406 9.53125 -24.609375 C 8.40625 -22.523438 7.84375 -20.148438 7.84375 -17.484375 C 7.84375 -14.828125 8.40625 -12.457031 9.53125 -10.375 C 10.664062 -8.289062 12.21875 -6.679688 14.1875 -5.546875 C 16.164062 -4.421875 18.394531 -3.859375 20.875 -3.859375 Z M 20.875 -3.859375 "/></g></g></g><g fill="#253d77" fill-opacity="1"><g transform="translate(1238.779165, 568.728295)"><g><path d="M 24.609375 -35.25 C 27.890625 -35.25 30.859375 -34.503906 33.515625 -33.015625 C 36.171875 -31.535156 38.253906 -29.441406 39.765625 -26.734375 C 41.273438 -24.023438 42.03125 -20.941406 42.03125 -17.484375 C 42.03125 -13.984375 41.273438 -10.878906 39.765625 -8.171875 C 38.253906 -5.472656 36.179688 -3.378906 33.546875 -1.890625 C 30.910156 -0.410156 27.929688 0.328125 24.609375 0.328125 C 21.765625 0.328125 19.203125 -0.253906 16.921875 -1.421875 C 14.640625 -2.597656 12.769531 -4.316406 11.3125 -6.578125 L 11.3125 12.90625 L 6.578125 12.90625 L 6.578125 -34.984375 L 11.109375 -34.984375 L 11.109375 -28.0625 C 12.523438 -30.363281 14.394531 -32.132812 16.71875 -33.375 C 19.050781 -34.625 21.679688 -35.25 24.609375 -35.25 Z M 24.265625 -3.859375 C 26.710938 -3.859375 28.929688 -4.421875 30.921875 -5.546875 C 32.921875 -6.679688 34.484375 -8.289062 35.609375 -10.375 C 36.742188 -12.457031 37.3125 -14.828125 37.3125 -17.484375 C 37.3125 -20.148438 36.742188 -22.507812 35.609375 -24.5625 C 34.484375 -26.625 32.921875 -28.234375 30.921875 -29.390625 C 28.929688 -30.546875 26.710938 -31.125 24.265625 -31.125 C 21.785156 -31.125 19.554688 -30.546875 17.578125 -29.390625 C 15.609375 -28.234375 14.054688 -26.625 12.921875 -24.5625 C 11.796875 -22.507812 11.234375 -20.148438 11.234375 -17.484375 C 11.234375 -14.828125 11.796875 -12.457031 12.921875 -10.375 C 14.054688 -8.289062 15.609375 -6.679688 17.578125 -5.546875 C 19.554688 -4.421875 21.785156 -3.859375 24.265625 -3.859375 Z M 24.265625 -3.859375 "/></g></g></g><g fill="#253d77" fill-opacity="1"><g transform="translate(1283.847479, 568.728295)"><g><path d="M 35.96875 -34.984375 L 18.484375 4.1875 C 17.066406 7.46875 15.425781 9.796875 13.5625 11.171875 C 11.695312 12.546875 9.457031 13.234375 6.84375 13.234375 C 5.164062 13.234375 3.59375 12.96875 2.125 12.4375 C 0.664062 11.90625 -0.59375 11.109375 -1.65625 10.046875 L 0.53125 6.515625 C 2.300781 8.285156 4.429688 9.171875 6.921875 9.171875 C 8.515625 9.171875 9.875 8.726562 11 7.84375 C 12.132812 6.957031 13.191406 5.453125 14.171875 3.328125 L 15.6875 -0.0625 L 0.0625 -34.984375 L 4.984375 -34.984375 L 18.15625 -5.25 L 31.328125 -34.984375 Z M 35.96875 -34.984375 "/></g></g></g><path stroke-linecap="butt" transform="matrix(3.791675, 0, 0, 3.791675, 722.008794, 505.206739)" fill="none" stroke-linejoin="miter" d="M -0.00025883 0.499733 L 158.518296 0.499733 " stroke="#253d77" stroke-width="1" stroke-opacity="1" stroke-miterlimit="4"/><path stroke-linecap="butt" transform="matrix(3.791675, 0, 0, 3.791675, 722.008794, 586.69703)" fill="none" stroke-linejoin="miter" d="M -0.00025883 0.500233 L 158.518296 0.500233 " stroke="#253d77" stroke-width="1" stroke-opacity="1" stroke-miterlimit="4"/></svg>